<?xml version="1.0" encoding="UTF-8" standalone="no"?>
<!-- Created with Inkscape (http://www.inkscape.org/) -->

<svg
   xmlns:dc="http://purl.org/dc/elements/1.1/"
   xmlns:cc="http://creativecommons.org/ns#"
   xmlns:rdf="http://www.w3.org/1999/02/22-rdf-syntax-ns#"
   xmlns:svg="http://www.w3.org/2000/svg"
   xmlns="http://www.w3.org/2000/svg"
   xmlns:sodipodi="http://sodipodi.sourceforge.net/DTD/sodipodi-0.dtd"
   xmlns:inkscape="http://www.inkscape.org/namespaces/inkscape"
   version="1.1"
   width="600"
   height="600"
   id="svg2"
   xml:space="preserve"
   inkscape:version="0.48.4 r9939"
   sodipodi:docname="icon.svg"
   inkscape:export-filename="/home/gonzo/Projects/smsparking/images/icon_64.png"
   inkscape:export-xdpi="9.6000004"
   inkscape:export-ydpi="9.6000004"><sodipodi:namedview
     pagecolor="#ffffff"
     bordercolor="#666666"
     borderopacity="1"
     objecttolerance="10"
     gridtolerance="10"
     guidetolerance="10"
     inkscape:pageopacity="0"
     inkscape:pageshadow="2"
     inkscape:window-width="1366"
     inkscape:window-height="744"
     id="namedview10"
     showgrid="false"
     showguides="true"
     inkscape:guide-bbox="true"
     inkscape:zoom="0.78666667"
     inkscape:cx="300"
     inkscape:cy="300"
     inkscape:window-x="0"
     inkscape:window-y="24"
     inkscape:window-maximized="1"
     inkscape:current-layer="svg2"><sodipodi:guide
       orientation="0,1"
       position="-143.64407,579.66102"
       id="guide2987" /><sodipodi:guide
       orientation="0,1"
       position="-91.525424,20.338983"
       id="guide2989" /><sodipodi:guide
       orientation="1,0"
       position="20.338983,258.05085"
       id="guide2991" /><sodipodi:guide
       orientation="1,0"
       position="579.66102,343.22034"
       id="guide2993" /><sodipodi:guide
       orientation="0,1"
       position="-53.389831,499.57627"
       id="guide3775" /><sodipodi:guide
       orientation="0,1"
       position="-82.627119,99.152542"
       id="guide3777" /><sodipodi:guide
       orientation="1,0"
       position="100.42373,336.86441"
       id="guide3779" /><sodipodi:guide
       orientation="1,0"
       position="499.57627,616.52542"
       id="guide3781" /></sodipodi:namedview><metadata
     id="metadata4"><rdf:RDF><cc:Work
         rdf:about=""><dc:format>image/svg+xml</dc:format><dc:type
           rdf:resource="http://purl.org/dc/dcmitype/StillImage" /><dc:title></dc:title></cc:Work></rdf:RDF></metadata><defs
     id="defs6" /><path
     inkscape:connector-curvature="0"
     d="m 578.40169,500.12216 c 0,42.19968 -32.36676,78.27954 -79.54211,78.27954 l -396.44797,0 c -44.646714,0 -79.542116,-34.82705 -79.542116,-78.27954 l 0,-397.71056 c 0,-44.728394 33.63808,-79.542108 79.542116,-79.542108 l 396.44797,0 c 47.17535,0 79.54211,37.348724 79.54211,79.542108 z"
     id="path14"
     style="fill:#ffffff;fill-opacity:1;stroke:#0079c1;stroke-width:3.47727799;stroke-linecap:butt;stroke-linejoin:miter;stroke-miterlimit:4;stroke-opacity:1;stroke-dasharray:none"
     sodipodi:nodetypes="sssssssss" /><path
     inkscape:connector-curvature="0"
     d="m 557.18436,500.84746 c 0,30.98196 -24.12674,57.62257 -57.60809,57.51594 L 100.42373,557.09221 C 72.018965,557.00175 42.838051,526.74433 42.838051,500.84746 l 0,-400.42373 c 0,-32.256763 26.638322,-57.506814 57.585679,-57.506814 l 399.15254,0 c 33.48974,0 57.60809,29.064078 57.60809,57.506814 l 0,400.42373"
     id="path16"
     style="fill:#0079c1;fill-opacity:1;fill-rule:nonzero"
     sodipodi:nodetypes="csssssssc" /><path
     inkscape:connector-curvature="0"
     d="M 168.2429,92.136331 V 519.56038 h 89.60352 V 353.25116 h 135.19766 c 53.80686,0 97.4154,-43.74493 97.4154,-97.72069 v -65.66411 c 0,-53.9851 -43.60854,-97.730029 -97.4154,-97.730029 H 168.2429 z m 90.06962,70.425419 h 100.73405 c 22.98817,0 41.63227,18.69577 41.63227,41.75482 v 37.56907 c 0,23.05906 -18.6441,41.75483 -41.63227,41.75483 H 258.31252 V 162.56175 z"
     id="path18"
     style="fill:#ffffff;fill-rule:nonzero" /></svg>